<svg height='100px' width='100px'  fill="#66475e" xmlns="http://www.w3.org/2000/svg" xmlns:xlink="http://www.w3.org/1999/xlink" xml:space="preserve" version="1.1" style="shape-rendering:geometricPrecision;text-rendering:geometricPrecision;image-rendering:optimizeQuality;" viewBox="0 0 273 317" x="0px" y="0px" fill-rule="evenodd" clip-rule="evenodd"><defs><style type="text/css">
   
    .fil0 {fill:#66475e}
   
  </style></defs><g><path class="fil0" d="M110 0l54 0c6,0 10,4 10,10l0 35 -74 0 0 -35c0,-6 5,-10 10,-10z"></path><path class="fil0" d="M83 57l109 0c5,0 10,5 10,11l0 27 14 0c9,0 15,7 15,15l0 39 -95 -36 -93 35 0 -38c0,-8 7,-15 15,-15l15 0 0 -27c0,-6 4,-11 10,-11zm15 14c5,0 9,3 9,8 0,5 -4,9 -9,9 -5,0 -8,-4 -8,-9 0,-5 3,-8 8,-8zm78 0c5,0 9,3 9,8 0,5 -4,9 -9,9 -4,0 -8,-4 -8,-9 0,-5 4,-8 8,-8zm-39 0c5,0 9,3 9,8 0,5 -4,9 -9,9 -4,0 -8,-4 -8,-9 0,-5 4,-8 8,-8z"></path><path class="fil0" d="M136 126l-136 52c32,41 57,82 70,123l66 16 67 -16c13,-41 38,-82 70,-123l-137 -52zm-85 53c5,0 9,4 9,8 0,5 -4,9 -9,9 -4,0 -8,-4 -8,-9 0,-4 4,-8 8,-8zm170 0c5,0 9,4 9,8 0,5 -4,9 -9,9 -4,0 -8,-4 -8,-9 0,-4 4,-8 8,-8z"></path></g></svg>